<svg width="183" height="117" viewBox="0 0 183 117" fill="none" xmlns="http://www.w3.org/2000/svg">
<g filter="url(#filter0_d)">
<path d="M138.692 41.125H128.787C125.846 31.4348 119.768 22.6407 111.245 15.7419C102.722 8.84312 92.0951 4.11632 80.5718 2.0986C69.0484 0.0808766 57.0908 0.853144 46.0577 4.32765C35.0245 7.80215 25.3582 13.8396 18.1572 21.7539C10.9561 29.6682 6.50909 39.142 5.32135 49.0989C4.13362 59.0557 6.25281 69.0964 11.4381 78.0799C16.6235 87.0634 24.667 94.6295 34.6548 99.9185C44.6425 105.208 56.174 108.007 67.939 108H138.692C149.117 108 159.116 104.477 166.487 98.2064C173.859 91.9356 178 83.4307 178 74.5625C178 65.6943 173.859 57.1894 166.487 50.9186C159.116 44.6479 149.117 41.125 138.692 41.125Z" fill="white"/>
<path d="M138.692 41.125H128.787C125.846 31.4348 119.768 22.6407 111.245 15.7419C102.722 8.84312 92.0951 4.11632 80.5718 2.0986C69.0484 0.0808766 57.0908 0.853144 46.0577 4.32765C35.0245 7.80215 25.3582 13.8396 18.1572 21.7539C10.9561 29.6682 6.50909 39.142 5.32135 49.0989C4.13362 59.0557 6.25281 69.0964 11.4381 78.0799C16.6235 87.0634 24.667 94.6295 34.6548 99.9185C44.6425 105.208 56.174 108.007 67.939 108H138.692C149.117 108 159.116 104.477 166.487 98.2064C173.859 91.9356 178 83.4307 178 74.5625C178 65.6943 173.859 57.1894 166.487 50.9186C159.116 44.6479 149.117 41.125 138.692 41.125Z" stroke="black" stroke-width="2" stroke-linecap="round" stroke-linejoin="round"/>
</g>
<path d="M53.764 54.5C53.5213 54.2573 53.4 53.9773 53.4 53.66C53.4 53.3427 53.5213 53.072 53.764 52.848C54.0067 52.624 54.3053 52.512 54.66 52.512C54.996 52.512 55.276 52.624 55.5 52.848C55.7427 53.072 55.864 53.3427 55.864 53.66C55.864 53.9773 55.7427 54.2573 55.5 54.5C55.276 54.724 54.996 54.836 54.66 54.836C54.3053 54.836 54.0067 54.724 53.764 54.5ZM53.764 71.272V59.428C53.764 59.2413 53.848 59.0827 54.016 58.952C54.184 58.8213 54.3987 58.756 54.66 58.756C54.9213 58.756 55.136 58.8213 55.304 58.952C55.4907 59.0827 55.584 59.2413 55.584 59.428V71.272C55.584 71.4587 55.4907 71.6267 55.304 71.776C55.1173 71.9253 54.9027 72 54.66 72C54.4173 72 54.2027 71.9253 54.016 71.776C53.848 71.6267 53.764 71.4587 53.764 71.272ZM57.7794 52.4C57.7794 52.176 57.8354 51.98 57.9474 51.812C58.078 51.6253 58.2554 51.532 58.4794 51.532H69.7074C69.9314 51.532 70.0994 51.616 70.2114 51.784C70.342 51.952 70.4074 52.148 70.4074 52.372C70.4074 52.6147 70.342 52.8293 70.2114 53.016C70.0994 53.184 69.9314 53.268 69.7074 53.268H65.0314V71.272C65.0314 71.496 64.938 71.6733 64.7514 71.804C64.5647 71.9347 64.35 72 64.1074 72C63.846 72 63.622 71.9347 63.4354 71.804C63.2674 71.6733 63.1834 71.496 63.1834 71.272V53.268H58.4794C58.274 53.268 58.106 53.184 57.9754 53.016C57.8447 52.848 57.7794 52.6427 57.7794 52.4ZM72.6038 71.272V51.308C72.6038 51.1213 72.6878 50.9627 72.8558 50.832C73.0238 50.7013 73.2385 50.636 73.4998 50.636C73.7612 50.636 73.9758 50.7013 74.1438 50.832C74.3305 50.9627 74.4238 51.1213 74.4238 51.308V60.716C74.7412 60.1187 75.2172 59.6147 75.8518 59.204C76.5052 58.7933 77.2612 58.588 78.1198 58.588C79.4638 58.588 80.6212 59.1013 81.5918 60.128C82.5812 61.1547 83.0758 62.3867 83.0758 63.824V71.272C83.0758 71.496 82.9825 71.6733 82.7958 71.804C82.6278 71.9347 82.4132 72 82.1518 72C81.9278 72 81.7225 71.9347 81.5358 71.804C81.3492 71.6733 81.2558 71.496 81.2558 71.272V63.824C81.2558 62.9093 80.9105 62.088 80.2198 61.36C79.5292 60.632 78.7172 60.268 77.7838 60.268C76.9065 60.268 76.1225 60.5947 75.4318 61.248C74.7598 61.9013 74.4238 62.76 74.4238 63.824V71.272C74.4238 71.4587 74.3305 71.6267 74.1438 71.776C73.9572 71.9253 73.7425 72 73.4998 72C73.2572 72 73.0425 71.9253 72.8558 71.776C72.6878 71.6267 72.6038 71.4587 72.6038 71.272ZM86.4945 54.5C86.2518 54.2573 86.1305 53.9773 86.1305 53.66C86.1305 53.3427 86.2518 53.072 86.4945 52.848C86.7371 52.624 87.0358 52.512 87.3905 52.512C87.7265 52.512 88.0065 52.624 88.2305 52.848C88.4731 53.072 88.5945 53.3427 88.5945 53.66C88.5945 53.9773 88.4731 54.2573 88.2305 54.5C88.0065 54.724 87.7265 54.836 87.3905 54.836C87.0358 54.836 86.7371 54.724 86.4945 54.5ZM86.4945 71.272V59.428C86.4945 59.2413 86.5785 59.0827 86.7465 58.952C86.9145 58.8213 87.1291 58.756 87.3905 58.756C87.6518 58.756 87.8665 58.8213 88.0345 58.952C88.2211 59.0827 88.3145 59.2413 88.3145 59.428V71.272C88.3145 71.4587 88.2211 71.6267 88.0345 71.776C87.8478 71.9253 87.6331 72 87.3905 72C87.1478 72 86.9331 71.9253 86.7465 71.776C86.5785 71.6267 86.4945 71.4587 86.4945 71.272ZM91.8538 71.272V59.428C91.8538 59.2227 91.9378 59.064 92.1058 58.952C92.2738 58.8213 92.4885 58.756 92.7498 58.756C92.9738 58.756 93.1698 58.8213 93.3378 58.952C93.5058 59.0827 93.5898 59.2413 93.5898 59.428V60.716C93.9072 60.1187 94.3925 59.6147 95.0458 59.204C95.6992 58.7933 96.4645 58.588 97.3418 58.588C98.6858 58.588 99.8525 59.1013 100.842 60.128C101.831 61.1547 102.326 62.3867 102.326 63.824V71.272C102.326 71.496 102.233 71.6733 102.046 71.804C101.859 71.9347 101.645 72 101.402 72C101.178 72 100.973 71.9347 100.786 71.804C100.599 71.6733 100.506 71.496 100.506 71.272V63.824C100.506 62.9093 100.161 62.088 99.4698 61.36C98.7792 60.632 97.9578 60.268 97.0058 60.268C96.1285 60.268 95.3538 60.5947 94.6818 61.248C94.0098 61.9013 93.6738 62.76 93.6738 63.824V71.272C93.6738 71.4587 93.5805 71.6267 93.3938 71.776C93.2072 71.9253 92.9925 72 92.7498 72C92.4885 72 92.2738 71.9253 92.1058 71.776C91.9378 71.6267 91.8538 71.4587 91.8538 71.272ZM105.744 71.272V51.308C105.744 51.1213 105.828 50.9627 105.996 50.832C106.164 50.7013 106.379 50.636 106.64 50.636C106.902 50.636 107.116 50.7013 107.284 50.832C107.471 50.9627 107.564 51.1213 107.564 51.308V64.944L114.396 58.868C114.583 58.756 114.723 58.7 114.816 58.7C115.04 58.7 115.246 58.7933 115.432 58.98C115.638 59.148 115.74 59.344 115.74 59.568C115.74 59.792 115.675 59.96 115.544 60.072L111.428 63.684L116.272 70.768C116.347 70.9173 116.384 71.048 116.384 71.16C116.384 71.3653 116.282 71.5707 116.076 71.776C115.871 71.9813 115.647 72.084 115.404 72.084C115.18 72.084 114.994 71.972 114.844 71.748L110.14 64.832L107.564 67.1V71.272C107.564 71.4587 107.471 71.6267 107.284 71.776C107.116 71.9253 106.902 72 106.64 72C106.398 72 106.183 71.9253 105.996 71.776C105.828 71.6267 105.744 71.4587 105.744 71.272Z" fill="black"/>
<defs>
<filter id="filter0_d" x="0" y="0" width="183" height="117" filterUnits="userSpaceOnUse" color-interpolation-filters="sRGB">
<feFlood flood-opacity="0" result="BackgroundImageFix"/>
<feColorMatrix in="SourceAlpha" type="matrix" values="0 0 0 0 0 0 0 0 0 0 0 0 0 0 0 0 0 0 127 0" result="hardAlpha"/>
<feOffset dy="4"/>
<feGaussianBlur stdDeviation="2"/>
<feComposite in2="hardAlpha" operator="out"/>
<feColorMatrix type="matrix" values="0 0 0 0 0 0 0 0 0 0 0 0 0 0 0 0 0 0 1 0"/>
<feBlend mode="normal" in2="BackgroundImageFix" result="effect1_dropShadow"/>
<feBlend mode="normal" in="SourceGraphic" in2="effect1_dropShadow" result="shape"/>
</filter>
</defs>
</svg>
